<mxfile host="app.diagrams.net" modified="2022-03-24T12:41:18.902Z" agent="5.0 (Macintosh; Intel Mac OS X 10_15_7) AppleWebKit/537.36 (KHTML, like Gecko) Chrome/99.0.4844.83 Safari/537.36" etag="A8vhHOwGWjaiURkIdSdL" version="16.5.3" type="github">
  <diagram id="kgpKYQtTHZ0yAKxKKP6v" name="Page-1">
    <mxGraphModel dx="1298" dy="801" grid="1" gridSize="10" guides="1" tooltips="1" connect="1" arrows="1" fold="1" page="1" pageScale="1" pageWidth="850" pageHeight="1100" math="0" shadow="0">
      <root>
        <mxCell id="0" />
        <mxCell id="1" parent="0" />
        <mxCell id="3nuBFxr9cyL0pnOWT2aG-1" value="Formio:form 1" style="shape=umlLifeline;perimeter=lifelinePerimeter;container=1;collapsible=0;recursiveResize=0;rounded=0;shadow=0;strokeWidth=1;" parent="1" vertex="1">
          <mxGeometry x="120" y="90" width="100" height="630" as="geometry" />
        </mxCell>
        <mxCell id="3nuBFxr9cyL0pnOWT2aG-2" value="" style="points=[];perimeter=orthogonalPerimeter;rounded=0;shadow=0;strokeWidth=1;" parent="3nuBFxr9cyL0pnOWT2aG-1" vertex="1">
          <mxGeometry x="45" y="70" width="10" height="60" as="geometry" />
        </mxCell>
        <mxCell id="T4Us8Nr24wU5gu7snGyo-34" value="" style="points=[];perimeter=orthogonalPerimeter;rounded=0;shadow=0;strokeWidth=1;" vertex="1" parent="3nuBFxr9cyL0pnOWT2aG-1">
          <mxGeometry x="45" y="330" width="10" height="60" as="geometry" />
        </mxCell>
        <mxCell id="3nuBFxr9cyL0pnOWT2aG-5" value="Formio: form 2" style="shape=umlLifeline;perimeter=lifelinePerimeter;container=1;collapsible=0;recursiveResize=0;rounded=0;shadow=0;strokeWidth=1;" parent="1" vertex="1">
          <mxGeometry x="300" y="80" width="100" height="560" as="geometry" />
        </mxCell>
        <mxCell id="3nuBFxr9cyL0pnOWT2aG-6" value="" style="points=[];perimeter=orthogonalPerimeter;rounded=0;shadow=0;strokeWidth=1;" parent="3nuBFxr9cyL0pnOWT2aG-5" vertex="1">
          <mxGeometry x="45" y="360" width="10" height="200" as="geometry" />
        </mxCell>
        <mxCell id="T4Us8Nr24wU5gu7snGyo-1" value="Webhooks" style="shape=umlLifeline;perimeter=lifelinePerimeter;container=1;collapsible=0;recursiveResize=0;rounded=0;shadow=0;strokeWidth=1;" vertex="1" parent="1">
          <mxGeometry x="470" y="80" width="100" height="520" as="geometry" />
        </mxCell>
        <mxCell id="T4Us8Nr24wU5gu7snGyo-2" value="" style="points=[];perimeter=orthogonalPerimeter;rounded=0;shadow=0;strokeWidth=1;" vertex="1" parent="T4Us8Nr24wU5gu7snGyo-1">
          <mxGeometry x="45" y="90" width="10" height="160" as="geometry" />
        </mxCell>
        <mxCell id="T4Us8Nr24wU5gu7snGyo-14" style="edgeStyle=orthogonalEdgeStyle;rounded=0;orthogonalLoop=1;jettySize=auto;html=1;" edge="1" parent="T4Us8Nr24wU5gu7snGyo-1" target="T4Us8Nr24wU5gu7snGyo-1">
          <mxGeometry relative="1" as="geometry">
            <mxPoint x="-292.5" y="100" as="sourcePoint" />
            <mxPoint x="10" y="105" as="targetPoint" />
            <Array as="points">
              <mxPoint x="-292" y="105" />
            </Array>
          </mxGeometry>
        </mxCell>
        <mxCell id="T4Us8Nr24wU5gu7snGyo-47" value="" style="points=[];perimeter=orthogonalPerimeter;rounded=0;shadow=0;strokeWidth=1;" vertex="1" parent="T4Us8Nr24wU5gu7snGyo-1">
          <mxGeometry x="45" y="400" width="10" height="90" as="geometry" />
        </mxCell>
        <mxCell id="T4Us8Nr24wU5gu7snGyo-48" value="extract orig submission id" style="edgeStyle=orthogonalEdgeStyle;rounded=0;orthogonalLoop=1;jettySize=auto;html=1;" edge="1" parent="T4Us8Nr24wU5gu7snGyo-1" source="T4Us8Nr24wU5gu7snGyo-47">
          <mxGeometry relative="1" as="geometry">
            <mxPoint x="50" y="434" as="targetPoint" />
            <Array as="points">
              <mxPoint x="75" y="420" />
              <mxPoint x="75" y="434" />
            </Array>
          </mxGeometry>
        </mxCell>
        <mxCell id="T4Us8Nr24wU5gu7snGyo-5" value="" style="shape=umlLifeline;perimeter=lifelinePerimeter;container=1;collapsible=0;recursiveResize=0;rounded=0;shadow=0;strokeWidth=1;" vertex="1" parent="1">
          <mxGeometry x="645" y="80" width="95" height="500" as="geometry" />
        </mxCell>
        <mxCell id="T4Us8Nr24wU5gu7snGyo-3" value="s3" style="shape=cylinder3;whiteSpace=wrap;html=1;boundedLbl=1;backgroundOutline=1;size=15;" vertex="1" parent="T4Us8Nr24wU5gu7snGyo-5">
          <mxGeometry x="27.5" y="-10" width="40" height="60" as="geometry" />
        </mxCell>
        <mxCell id="T4Us8Nr24wU5gu7snGyo-50" value="" style="points=[];perimeter=orthogonalPerimeter;rounded=0;shadow=0;strokeWidth=1;" vertex="1" parent="T4Us8Nr24wU5gu7snGyo-5">
          <mxGeometry x="42.5" y="180" width="10" height="30" as="geometry" />
        </mxCell>
        <mxCell id="T4Us8Nr24wU5gu7snGyo-43" value="" style="points=[];perimeter=orthogonalPerimeter;rounded=0;shadow=0;strokeWidth=1;" vertex="1" parent="T4Us8Nr24wU5gu7snGyo-5">
          <mxGeometry x="42.5" y="240" width="10" height="100" as="geometry" />
        </mxCell>
        <mxCell id="T4Us8Nr24wU5gu7snGyo-70" value="" style="points=[];perimeter=orthogonalPerimeter;rounded=0;shadow=0;strokeWidth=1;" vertex="1" parent="T4Us8Nr24wU5gu7snGyo-5">
          <mxGeometry x="45" y="400" width="10" height="100" as="geometry" />
        </mxCell>
        <mxCell id="T4Us8Nr24wU5gu7snGyo-73" style="edgeStyle=orthogonalEdgeStyle;rounded=0;orthogonalLoop=1;jettySize=auto;html=1;entryX=0;entryY=0.103;entryDx=0;entryDy=0;entryPerimeter=0;startArrow=classic;startFill=1;endArrow=none;endFill=0;" edge="1" parent="T4Us8Nr24wU5gu7snGyo-5">
          <mxGeometry relative="1" as="geometry">
            <mxPoint x="52" y="259" as="sourcePoint" />
            <mxPoint x="254.5" y="254.45000000000005" as="targetPoint" />
            <Array as="points">
              <mxPoint x="70" y="259" />
              <mxPoint x="70" y="255" />
            </Array>
          </mxGeometry>
        </mxCell>
        <mxCell id="3nuBFxr9cyL0pnOWT2aG-3" value="submit data" style="verticalAlign=bottom;startArrow=oval;endArrow=block;startSize=8;shadow=0;strokeWidth=1;exitX=0.75;exitY=0.1;exitDx=0;exitDy=0;exitPerimeter=0;" parent="1" target="3nuBFxr9cyL0pnOWT2aG-2" edge="1" source="T4Us8Nr24wU5gu7snGyo-9">
          <mxGeometry relative="1" as="geometry">
            <mxPoint x="90" y="150" as="sourcePoint" />
          </mxGeometry>
        </mxCell>
        <mxCell id="T4Us8Nr24wU5gu7snGyo-15" style="edgeStyle=orthogonalEdgeStyle;rounded=0;orthogonalLoop=1;jettySize=auto;html=1;" edge="1" parent="1" source="T4Us8Nr24wU5gu7snGyo-2" target="T4Us8Nr24wU5gu7snGyo-50">
          <mxGeometry relative="1" as="geometry">
            <mxPoint x="680" y="320" as="targetPoint" />
            <Array as="points" />
          </mxGeometry>
        </mxCell>
        <mxCell id="T4Us8Nr24wU5gu7snGyo-62" value="put data into bucket" style="edgeLabel;html=1;align=center;verticalAlign=middle;resizable=0;points=[];" vertex="1" connectable="0" parent="T4Us8Nr24wU5gu7snGyo-15">
          <mxGeometry x="-0.1097" y="-1" relative="1" as="geometry">
            <mxPoint y="1" as="offset" />
          </mxGeometry>
        </mxCell>
        <mxCell id="T4Us8Nr24wU5gu7snGyo-19" value="eMedia System" style="shape=umlLifeline;perimeter=lifelinePerimeter;container=1;collapsible=0;recursiveResize=0;rounded=0;shadow=0;strokeWidth=1;" vertex="1" parent="1">
          <mxGeometry x="850" y="80" width="100" height="467.5" as="geometry" />
        </mxCell>
        <mxCell id="T4Us8Nr24wU5gu7snGyo-21" style="edgeStyle=orthogonalEdgeStyle;rounded=0;orthogonalLoop=1;jettySize=auto;html=1;" edge="1" parent="T4Us8Nr24wU5gu7snGyo-19" source="T4Us8Nr24wU5gu7snGyo-20" target="T4Us8Nr24wU5gu7snGyo-19">
          <mxGeometry relative="1" as="geometry">
            <Array as="points">
              <mxPoint x="50" y="278" />
              <mxPoint x="50" y="278" />
            </Array>
          </mxGeometry>
        </mxCell>
        <mxCell id="T4Us8Nr24wU5gu7snGyo-24" style="edgeStyle=orthogonalEdgeStyle;rounded=0;orthogonalLoop=1;jettySize=auto;html=1;" edge="1" parent="T4Us8Nr24wU5gu7snGyo-19" source="T4Us8Nr24wU5gu7snGyo-20" target="T4Us8Nr24wU5gu7snGyo-19">
          <mxGeometry relative="1" as="geometry">
            <Array as="points">
              <mxPoint x="90" y="220" />
              <mxPoint x="90" y="220" />
            </Array>
          </mxGeometry>
        </mxCell>
        <mxCell id="T4Us8Nr24wU5gu7snGyo-20" value="" style="points=[];perimeter=orthogonalPerimeter;rounded=0;shadow=0;strokeWidth=1;" vertex="1" parent="T4Us8Nr24wU5gu7snGyo-19">
          <mxGeometry x="45" y="220" width="10" height="150" as="geometry" />
        </mxCell>
        <mxCell id="T4Us8Nr24wU5gu7snGyo-25" style="edgeStyle=orthogonalEdgeStyle;rounded=0;orthogonalLoop=1;jettySize=auto;html=1;entryX=1.1;entryY=0.581;entryDx=0;entryDy=0;entryPerimeter=0;" edge="1" parent="T4Us8Nr24wU5gu7snGyo-19">
          <mxGeometry relative="1" as="geometry">
            <mxPoint x="55" y="250" as="sourcePoint" />
            <mxPoint x="56" y="284.96000000000004" as="targetPoint" />
            <Array as="points">
              <mxPoint x="75" y="250" />
              <mxPoint x="75" y="285" />
            </Array>
          </mxGeometry>
        </mxCell>
        <mxCell id="T4Us8Nr24wU5gu7snGyo-51" value="recognise new submissions" style="edgeLabel;html=1;align=center;verticalAlign=middle;resizable=0;points=[];" vertex="1" connectable="0" parent="T4Us8Nr24wU5gu7snGyo-25">
          <mxGeometry x="0.0811" relative="1" as="geometry">
            <mxPoint as="offset" />
          </mxGeometry>
        </mxCell>
        <mxCell id="T4Us8Nr24wU5gu7snGyo-28" style="edgeStyle=orthogonalEdgeStyle;rounded=0;orthogonalLoop=1;jettySize=auto;html=1;" edge="1" parent="1">
          <mxGeometry relative="1" as="geometry">
            <mxPoint x="895" y="370" as="sourcePoint" />
            <mxPoint x="59.5" y="370" as="targetPoint" />
            <Array as="points">
              <mxPoint x="750" y="370" />
              <mxPoint x="750" y="370" />
            </Array>
          </mxGeometry>
        </mxCell>
        <mxCell id="T4Us8Nr24wU5gu7snGyo-29" value="send emai with submission idl" style="edgeLabel;html=1;align=center;verticalAlign=middle;resizable=0;points=[];" vertex="1" connectable="0" parent="T4Us8Nr24wU5gu7snGyo-28">
          <mxGeometry x="0.1046" relative="1" as="geometry">
            <mxPoint as="offset" />
          </mxGeometry>
        </mxCell>
        <mxCell id="T4Us8Nr24wU5gu7snGyo-37" style="edgeStyle=orthogonalEdgeStyle;rounded=0;orthogonalLoop=1;jettySize=auto;html=1;" edge="1" parent="1">
          <mxGeometry relative="1" as="geometry">
            <mxPoint x="175" y="463" as="sourcePoint" />
            <mxPoint x="349.5" y="463" as="targetPoint" />
            <Array as="points">
              <mxPoint x="290" y="463" />
              <mxPoint x="290" y="463" />
            </Array>
          </mxGeometry>
        </mxCell>
        <mxCell id="T4Us8Nr24wU5gu7snGyo-38" value="submit data" style="edgeLabel;html=1;align=center;verticalAlign=middle;resizable=0;points=[];" vertex="1" connectable="0" parent="T4Us8Nr24wU5gu7snGyo-37">
          <mxGeometry x="-0.2686" relative="1" as="geometry">
            <mxPoint y="1" as="offset" />
          </mxGeometry>
        </mxCell>
        <mxCell id="T4Us8Nr24wU5gu7snGyo-44" style="edgeStyle=orthogonalEdgeStyle;rounded=0;orthogonalLoop=1;jettySize=auto;html=1;" edge="1" parent="1" source="3nuBFxr9cyL0pnOWT2aG-6">
          <mxGeometry relative="1" as="geometry">
            <mxPoint x="520" y="490" as="targetPoint" />
            <Array as="points">
              <mxPoint x="510" y="490" />
              <mxPoint x="510" y="490" />
            </Array>
          </mxGeometry>
        </mxCell>
        <mxCell id="T4Us8Nr24wU5gu7snGyo-46" value="send data &amp;amp; referer" style="edgeLabel;html=1;align=center;verticalAlign=middle;resizable=0;points=[];" vertex="1" connectable="0" parent="T4Us8Nr24wU5gu7snGyo-44">
          <mxGeometry x="0.1341" y="-1" relative="1" as="geometry">
            <mxPoint y="1" as="offset" />
          </mxGeometry>
        </mxCell>
        <mxCell id="T4Us8Nr24wU5gu7snGyo-52" value="User" style="shape=umlLifeline;perimeter=lifelinePerimeter;container=1;collapsible=0;recursiveResize=0;rounded=0;shadow=0;strokeWidth=1;" vertex="1" parent="1">
          <mxGeometry x="10" y="90" width="100" height="630" as="geometry" />
        </mxCell>
        <mxCell id="T4Us8Nr24wU5gu7snGyo-54" value="" style="points=[];perimeter=orthogonalPerimeter;rounded=0;shadow=0;strokeWidth=1;" vertex="1" parent="T4Us8Nr24wU5gu7snGyo-52">
          <mxGeometry x="45" y="330" width="10" height="60" as="geometry" />
        </mxCell>
        <mxCell id="T4Us8Nr24wU5gu7snGyo-9" value="Actor" style="shape=umlActor;verticalLabelPosition=bottom;verticalAlign=top;html=1;outlineConnect=0;" vertex="1" parent="T4Us8Nr24wU5gu7snGyo-52">
          <mxGeometry x="35" y="80" width="30" height="60" as="geometry" />
        </mxCell>
        <mxCell id="T4Us8Nr24wU5gu7snGyo-55" value="click link" style="edgeStyle=orthogonalEdgeStyle;rounded=0;orthogonalLoop=1;jettySize=auto;html=1;entryX=-0.1;entryY=0.492;entryDx=0;entryDy=0;entryPerimeter=0;" edge="1" parent="1" source="T4Us8Nr24wU5gu7snGyo-54" target="T4Us8Nr24wU5gu7snGyo-34">
          <mxGeometry relative="1" as="geometry" />
        </mxCell>
        <mxCell id="T4Us8Nr24wU5gu7snGyo-56" style="edgeStyle=orthogonalEdgeStyle;rounded=0;orthogonalLoop=1;jettySize=auto;html=1;endArrow=none;endFill=0;" edge="1" parent="1" source="T4Us8Nr24wU5gu7snGyo-35">
          <mxGeometry relative="1" as="geometry">
            <mxPoint x="340" y="370" as="targetPoint" />
          </mxGeometry>
        </mxCell>
        <mxCell id="T4Us8Nr24wU5gu7snGyo-35" value="Link: &amp;amp;submissionId=abc123" style="shape=note;whiteSpace=wrap;html=1;backgroundOutline=1;darkOpacity=0.05;fillColor=#fff2cc;strokeColor=#d6b656;" vertex="1" parent="1">
          <mxGeometry x="190" y="280" width="130" height="70" as="geometry" />
        </mxCell>
        <mxCell id="T4Us8Nr24wU5gu7snGyo-71" style="edgeStyle=orthogonalEdgeStyle;rounded=0;orthogonalLoop=1;jettySize=auto;html=1;entryX=1;entryY=0.983;entryDx=0;entryDy=0;entryPerimeter=0;startArrow=classic;startFill=1;endArrow=none;endFill=0;" edge="1" parent="1" source="T4Us8Nr24wU5gu7snGyo-70" target="T4Us8Nr24wU5gu7snGyo-47">
          <mxGeometry relative="1" as="geometry">
            <Array as="points">
              <mxPoint x="525" y="540" />
            </Array>
          </mxGeometry>
        </mxCell>
        <mxCell id="T4Us8Nr24wU5gu7snGyo-72" value="put into bucket wiith id as metadata" style="edgeLabel;html=1;align=center;verticalAlign=middle;resizable=0;points=[];" vertex="1" connectable="0" parent="T4Us8Nr24wU5gu7snGyo-71">
          <mxGeometry x="0.1578" y="1" relative="1" as="geometry">
            <mxPoint as="offset" />
          </mxGeometry>
        </mxCell>
        <mxCell id="T4Us8Nr24wU5gu7snGyo-74" value="" style="points=[];perimeter=orthogonalPerimeter;rounded=0;shadow=0;strokeWidth=1;" vertex="1" parent="1">
          <mxGeometry x="895" y="530" width="10" height="50" as="geometry" />
        </mxCell>
        <mxCell id="T4Us8Nr24wU5gu7snGyo-75" style="edgeStyle=orthogonalEdgeStyle;rounded=0;orthogonalLoop=1;jettySize=auto;html=1;entryX=0.1;entryY=0.75;entryDx=0;entryDy=0;entryPerimeter=0;startArrow=classic;startFill=1;endArrow=none;endFill=0;" edge="1" parent="1" source="T4Us8Nr24wU5gu7snGyo-70" target="T4Us8Nr24wU5gu7snGyo-74">
          <mxGeometry relative="1" as="geometry">
            <Array as="points">
              <mxPoint x="798" y="568" />
            </Array>
          </mxGeometry>
        </mxCell>
        <mxCell id="T4Us8Nr24wU5gu7snGyo-77" value="import files" style="edgeLabel;html=1;align=center;verticalAlign=middle;resizable=0;points=[];" vertex="1" connectable="0" parent="T4Us8Nr24wU5gu7snGyo-75">
          <mxGeometry x="0.0102" y="2" relative="1" as="geometry">
            <mxPoint as="offset" />
          </mxGeometry>
        </mxCell>
        <mxCell id="T4Us8Nr24wU5gu7snGyo-76" value="merge" style="edgeStyle=orthogonalEdgeStyle;rounded=0;orthogonalLoop=1;jettySize=auto;html=1;entryX=0.6;entryY=1.07;entryDx=0;entryDy=0;entryPerimeter=0;startArrow=classic;startFill=1;endArrow=none;endFill=0;" edge="1" parent="1" source="T4Us8Nr24wU5gu7snGyo-74" target="T4Us8Nr24wU5gu7snGyo-74">
          <mxGeometry relative="1" as="geometry" />
        </mxCell>
      </root>
    </mxGraphModel>
  </diagram>
</mxfile>
